<svg width="60" height="60" viewBox="0 0 60 60" fill="none" xmlns="http://www.w3.org/2000/svg">
<path d="M29.9003 5.03521L35.3706 21.8711L35.4829 22.2166H35.8462H53.5484L39.227 32.6217L38.9331 32.8352L39.0454 33.1807L44.5157 50.0166L30.1942 39.6114L29.9003 39.3979L29.6065 39.6114L15.285 50.0166L20.7553 33.1807L20.8676 32.8352L20.5737 32.6217L6.25225 22.2166H23.9545H24.3178L24.43 21.8711L29.9003 5.03521Z" stroke="white"/>
<path d="M42.2447 14.5175L37.3861 27.6241L37.2599 27.9648L37.5448 28.1901L48.5086 36.8611L34.542 36.2904L34.1791 36.2756L34.0528 36.6162L29.1942 49.7229L25.421 36.2636L25.323 35.9138L24.96 35.899L10.9935 35.3283L22.628 27.5807L22.9304 27.3793L22.8323 27.0295L19.0591 13.5702L30.0229 22.2412L30.3078 22.4665L30.6102 22.2652L42.2447 14.5175Z" stroke="white"/>
</svg>
