<svg width="69" height="18" viewBox="0 0 69 18" fill="none" xmlns="http://www.w3.org/2000/svg">
<path d="M9.712 0.199999C9.92 0.199999 10.088 0.271999 10.216 0.415999C10.36 0.543999 10.432 0.711999 10.432 0.92C10.432 1.112 10.36 1.28 10.216 1.424C10.088 1.552 9.92 1.616 9.712 1.616H1.72V7.64H8.632C8.84 7.64 9.008 7.704 9.136 7.832C9.28 7.96 9.352 8.128 9.352 8.336C9.352 8.544 9.28 8.712 9.136 8.84C9.008 8.968 8.84 9.032 8.632 9.032H1.72V16.28C1.72 16.488 1.648 16.664 1.504 16.808C1.376 16.936 1.208 17 1 17C0.776 17 0.592 16.936 0.448 16.808C0.32 16.664 0.256 16.488 0.256 16.28V0.92C0.256 0.711999 0.32 0.543999 0.448 0.415999C0.592 0.271999 0.768 0.199999 0.976 0.199999H9.712ZM19.0148 4.448C19.3348 4.448 19.6228 4.512 19.8788 4.64C20.1348 4.768 20.2628 4.96 20.2628 5.216C20.2628 5.44 20.1988 5.624 20.0708 5.768C19.9428 5.896 19.7908 5.96 19.6148 5.96C19.5348 5.96 19.3748 5.92 19.1348 5.84C18.9108 5.76 18.6948 5.72 18.4868 5.72C17.8948 5.72 17.3028 5.952 16.7108 6.416C16.1348 6.864 15.6548 7.448 15.2708 8.168C14.9028 8.888 14.7188 9.616 14.7188 10.352V16.28C14.7188 16.488 14.6468 16.664 14.5028 16.808C14.3748 16.936 14.2068 17 13.9988 17C13.7908 17 13.6148 16.936 13.4708 16.808C13.3428 16.664 13.2788 16.488 13.2788 16.28V5.528C13.2788 5.32 13.3428 5.152 13.4708 5.024C13.6148 4.88 13.7908 4.808 13.9988 4.808C14.2068 4.808 14.3748 4.88 14.5028 5.024C14.6468 5.152 14.7188 5.32 14.7188 5.528V7.64C15.0868 6.728 15.6388 5.976 16.3748 5.384C17.1268 4.776 18.0068 4.464 19.0148 4.448ZM32.1919 4.736C32.3999 4.736 32.5679 4.808 32.6959 4.952C32.8399 5.096 32.9119 5.272 32.9119 5.48V16.28C32.9119 16.488 32.8399 16.664 32.6959 16.808C32.5679 16.936 32.3999 17 32.1919 17C31.9839 17 31.8079 16.936 31.6639 16.808C31.5359 16.664 31.4719 16.488 31.4719 16.28V14.672C31.0719 15.392 30.4719 16 29.6719 16.496C28.8719 16.992 27.9999 17.24 27.0559 17.24C25.9839 17.24 25.0159 16.96 24.1519 16.4C23.3039 15.84 22.6319 15.072 22.1359 14.096C21.6559 13.12 21.4159 12.024 21.4159 10.808C21.4159 9.592 21.6639 8.504 22.1599 7.544C22.6559 6.568 23.3279 5.808 24.1759 5.264C25.0399 4.72 25.9919 4.448 27.0319 4.448C27.9919 4.448 28.8719 4.68 29.6719 5.144C30.4719 5.608 31.0719 6.216 31.4719 6.968V5.48C31.4719 5.272 31.5359 5.096 31.6639 4.952C31.8079 4.808 31.9839 4.736 32.1919 4.736ZM27.1999 15.896C28.0319 15.896 28.7759 15.68 29.4319 15.248C30.1039 14.8 30.6239 14.192 30.9919 13.424C31.3759 12.64 31.5679 11.768 31.5679 10.808C31.5679 9.88 31.3759 9.032 30.9919 8.264C30.6239 7.496 30.1039 6.896 29.4319 6.464C28.7759 6.016 28.0319 5.792 27.1999 5.792C26.3679 5.792 25.6159 6.008 24.9439 6.44C24.2879 6.872 23.7679 7.472 23.3839 8.24C23.0159 8.992 22.8319 9.848 22.8319 10.808C22.8319 11.768 23.0159 12.64 23.3839 13.424C23.7519 14.192 24.2639 14.8 24.9199 15.248C25.5919 15.68 26.3519 15.896 27.1999 15.896ZM50.5894 4.64C52.0294 4.64 53.0854 5.088 53.7574 5.984C54.4454 6.864 54.7894 8.032 54.7894 9.488V16.28C54.7894 16.488 54.7174 16.664 54.5734 16.808C54.4454 16.936 54.2774 17 54.0694 17C53.8614 17 53.6854 16.936 53.5414 16.808C53.4134 16.664 53.3494 16.488 53.3494 16.28V9.56C53.3494 8.504 53.0934 7.648 52.5814 6.992C52.0854 6.32 51.3094 5.984 50.2534 5.984C49.5814 5.984 48.9414 6.144 48.3334 6.464C47.7414 6.784 47.2614 7.224 46.8934 7.784C46.5254 8.328 46.3414 8.92 46.3414 9.56V16.28C46.3414 16.488 46.2694 16.664 46.1254 16.808C45.9974 16.936 45.8294 17 45.6214 17C45.4134 17 45.2374 16.936 45.0934 16.808C44.9654 16.664 44.9014 16.488 44.9014 16.28V9.488C44.9014 8.448 44.6614 7.608 44.1814 6.968C43.7014 6.312 42.9494 5.984 41.9254 5.984C41.2694 5.984 40.6454 6.144 40.0534 6.464C39.4774 6.784 39.0054 7.216 38.6374 7.76C38.2854 8.288 38.1094 8.864 38.1094 9.488V16.28C38.1094 16.488 38.0374 16.664 37.8934 16.808C37.7654 16.936 37.5974 17 37.3894 17C37.1814 17 37.0054 16.936 36.8614 16.808C36.7334 16.664 36.6694 16.488 36.6694 16.28V5.528C36.6694 5.32 36.7334 5.152 36.8614 5.024C37.0054 4.88 37.1814 4.808 37.3894 4.808C37.5974 4.808 37.7654 4.88 37.8934 5.024C38.0374 5.152 38.1094 5.32 38.1094 5.528V6.92C38.5414 6.264 39.1254 5.72 39.8614 5.288C40.5974 4.856 41.3734 4.64 42.1894 4.64C43.1174 4.64 43.9174 4.864 44.5894 5.312C45.2614 5.76 45.7414 6.416 46.0294 7.28C46.3654 6.576 46.9814 5.96 47.8774 5.432C48.7734 4.904 49.6774 4.64 50.5894 4.64ZM68.9281 10.16C68.9281 10.352 68.8561 10.52 68.7121 10.664C68.5681 10.792 68.4001 10.856 68.2081 10.856H59.1361C59.1361 11.816 59.3281 12.68 59.7121 13.448C60.1121 14.2 60.6721 14.8 61.3921 15.248C62.1281 15.68 62.9921 15.896 63.9841 15.896C64.7521 15.896 65.4401 15.736 66.0481 15.416C66.6561 15.096 67.1441 14.688 67.5121 14.192C67.6881 14.048 67.8561 13.976 68.0161 13.976C68.1761 13.976 68.3201 14.04 68.4481 14.168C68.5761 14.296 68.6401 14.44 68.6401 14.6C68.6401 14.776 68.5601 14.944 68.4001 15.104C67.8881 15.728 67.2401 16.24 66.4561 16.64C65.6881 17.04 64.8721 17.24 64.0081 17.24C62.7761 17.24 61.6881 16.976 60.7441 16.448C59.8001 15.92 59.0641 15.184 58.5361 14.24C58.0081 13.28 57.7441 12.176 57.7441 10.928C57.7441 9.616 58.0001 8.472 58.5121 7.496C59.0401 6.504 59.7361 5.752 60.6001 5.24C61.4641 4.712 62.3841 4.448 63.3601 4.448C64.3201 4.448 65.2161 4.672 66.0481 5.12C66.8961 5.568 67.5841 6.224 68.1121 7.088C68.6401 7.952 68.9121 8.976 68.9281 10.16ZM63.3601 5.84C62.4321 5.84 61.5681 6.16 60.7681 6.8C59.9841 7.44 59.4801 8.36 59.2561 9.56H67.4401V9.368C67.3601 8.648 67.1201 8.024 66.7201 7.496C66.3201 6.952 65.8161 6.544 65.2081 6.272C64.6161 5.984 64.0001 5.84 63.3601 5.84Z" fill="black"/>
</svg>
