<svg width="107" height="36" viewBox="0 0 107 36" fill="none" xmlns="http://www.w3.org/2000/svg">
<path d="M45.498 11.4C46.158 11.4 46.752 11.556 47.28 11.868C47.808 12.168 48.216 12.594 48.504 13.146C48.804 13.686 48.954 14.298 48.954 14.982C48.954 15.666 48.804 16.29 48.504 16.854C48.216 17.418 47.808 17.862 47.28 18.186C46.752 18.51 46.158 18.672 45.498 18.672H41.772V23.46C41.772 23.616 41.718 23.748 41.61 23.856C41.514 23.952 41.388 24 41.232 24C41.076 24 40.944 23.952 40.836 23.856C40.74 23.748 40.692 23.616 40.692 23.46V11.94C40.692 11.784 40.74 11.658 40.836 11.562C40.944 11.454 41.076 11.4 41.232 11.4H45.498ZM45.498 17.628C46.194 17.628 46.758 17.376 47.19 16.872C47.622 16.368 47.838 15.738 47.838 14.982C47.838 14.238 47.622 13.632 47.19 13.164C46.758 12.696 46.194 12.462 45.498 12.462H41.772V17.628H45.498ZM59.4649 19.392C59.4649 20.292 59.2669 21.108 58.8709 21.84C58.4749 22.572 57.9289 23.148 57.2329 23.568C56.5369 23.976 55.7629 24.18 54.9109 24.18C54.0589 24.18 53.2849 23.976 52.5889 23.568C51.8929 23.148 51.3469 22.572 50.9509 21.84C50.5549 21.108 50.3569 20.292 50.3569 19.392C50.3569 18.492 50.5549 17.676 50.9509 16.944C51.3469 16.212 51.8929 15.636 52.5889 15.216C53.2849 14.796 54.0589 14.586 54.9109 14.586C55.7629 14.586 56.5369 14.796 57.2329 15.216C57.9289 15.636 58.4749 16.212 58.8709 16.944C59.2669 17.676 59.4649 18.492 59.4649 19.392ZM58.3849 19.392C58.3849 18.672 58.2349 18.024 57.9349 17.448C57.6349 16.872 57.2149 16.422 56.6749 16.098C56.1469 15.762 55.5589 15.594 54.9109 15.594C54.2629 15.594 53.6749 15.762 53.1469 16.098C52.6189 16.422 52.1989 16.872 51.8869 17.448C51.5869 18.024 51.4369 18.672 51.4369 19.392C51.4369 20.1 51.5869 20.742 51.8869 21.318C52.1989 21.894 52.6189 22.35 53.1469 22.686C53.6749 23.01 54.2629 23.172 54.9109 23.172C55.5589 23.172 56.1469 23.01 56.6749 22.686C57.2149 22.362 57.6349 21.912 57.9349 21.336C58.2349 20.76 58.3849 20.112 58.3849 19.392ZM62.862 23.46C62.862 23.616 62.808 23.748 62.7 23.856C62.604 23.952 62.478 24 62.322 24C62.166 24 62.034 23.952 61.926 23.856C61.83 23.748 61.782 23.616 61.782 23.46V11.22C61.782 11.064 61.83 10.938 61.926 10.842C62.034 10.734 62.166 10.68 62.322 10.68C62.478 10.68 62.604 10.734 62.7 10.842C62.808 10.938 62.862 11.064 62.862 11.22V23.46ZM72.4167 14.64C72.5727 14.64 72.6987 14.694 72.7947 14.802C72.9027 14.898 72.9567 15.024 72.9567 15.18V23.118C72.9567 24.066 72.7707 24.876 72.3987 25.548C72.0267 26.22 71.5107 26.73 70.8507 27.078C70.1907 27.426 69.4467 27.6 68.6187 27.6C68.1147 27.6 67.6407 27.546 67.1967 27.438C66.7647 27.33 66.4047 27.186 66.1167 27.006C65.8647 26.85 65.7387 26.676 65.7387 26.484C65.7387 26.46 65.7507 26.4 65.7747 26.304C65.8107 26.184 65.8707 26.094 65.9547 26.034C66.0387 25.974 66.1287 25.944 66.2247 25.944C66.2967 25.944 66.3687 25.962 66.4407 25.998C67.2087 26.418 67.9407 26.628 68.6367 26.628C69.6327 26.628 70.4187 26.316 70.9947 25.692C71.5827 25.068 71.8767 24.216 71.8767 23.136V22.506C71.5767 23.01 71.1447 23.418 70.5807 23.73C70.0167 24.03 69.4047 24.18 68.7447 24.18C67.7007 24.18 66.9087 23.868 66.3687 23.244C65.8287 22.62 65.5587 21.774 65.5587 20.706V15.18C65.5587 15.024 65.6067 14.898 65.7027 14.802C65.8107 14.694 65.9427 14.64 66.0987 14.64C66.2547 14.64 66.3807 14.694 66.4767 14.802C66.5847 14.898 66.6387 15.024 66.6387 15.18V20.544C66.6387 21.408 66.8247 22.062 67.1967 22.506C67.5807 22.95 68.1747 23.172 68.9787 23.172C69.4707 23.172 69.9387 23.052 70.3827 22.812C70.8387 22.56 71.1987 22.236 71.4627 21.84C71.7387 21.432 71.8767 21 71.8767 20.544V15.18C71.8767 15.024 71.9247 14.898 72.0207 14.802C72.1287 14.694 72.2607 14.64 72.4167 14.64ZM83.3015 14.802C83.4575 14.802 83.5835 14.856 83.6795 14.964C83.7875 15.06 83.8415 15.192 83.8415 15.36V23.154C83.8415 24.09 83.6435 24.888 83.2475 25.548C82.8635 26.22 82.3295 26.73 81.6455 27.078C80.9735 27.426 80.1995 27.6 79.3235 27.6C78.9035 27.6 78.4595 27.546 77.9915 27.438C77.5355 27.33 77.1395 27.192 76.8035 27.024C76.4795 26.856 76.2935 26.682 76.2455 26.502C76.1615 26.418 76.1195 26.322 76.1195 26.214C76.1195 26.094 76.1735 25.998 76.2815 25.926C76.3295 25.89 76.3895 25.872 76.4615 25.872C76.5335 25.872 76.6715 25.914 76.8755 25.998L77.2535 26.16C77.9975 26.448 78.6935 26.592 79.3415 26.592C80.4095 26.592 81.2435 26.286 81.8435 25.674C82.4555 25.074 82.7615 24.258 82.7615 23.226V22.11C82.4615 22.758 81.9875 23.268 81.3395 23.64C80.6915 24 80.0135 24.18 79.3055 24.18C78.4775 24.18 77.7275 23.976 77.0555 23.568C76.3955 23.148 75.8735 22.572 75.4895 21.84C75.1055 21.108 74.9135 20.286 74.9135 19.374C74.9135 18.474 75.1055 17.658 75.4895 16.926C75.8735 16.194 76.3955 15.624 77.0555 15.216C77.7275 14.796 78.4715 14.586 79.2875 14.586C80.0435 14.586 80.7335 14.778 81.3575 15.162C81.9935 15.534 82.4615 15.984 82.7615 16.512V15.36C82.7615 15.204 82.8095 15.072 82.9055 14.964C83.0135 14.856 83.1455 14.802 83.3015 14.802ZM79.3955 23.172C80.0555 23.172 80.6435 23.016 81.1595 22.704C81.6875 22.38 82.0955 21.93 82.3835 21.354C82.6835 20.766 82.8335 20.106 82.8335 19.374C82.8335 18.642 82.6835 17.988 82.3835 17.412C82.0955 16.836 81.6875 16.392 81.1595 16.08C80.6435 15.756 80.0555 15.594 79.3955 15.594C78.7475 15.594 78.1595 15.762 77.6315 16.098C77.1155 16.422 76.7075 16.872 76.4075 17.448C76.1195 18.024 75.9755 18.666 75.9755 19.374C75.9755 20.094 76.1195 20.742 76.4075 21.318C76.7075 21.894 77.1155 22.35 77.6315 22.686C78.1595 23.01 78.7475 23.172 79.3955 23.172ZM94.8321 19.392C94.8321 20.292 94.6341 21.108 94.2381 21.84C93.8421 22.572 93.2961 23.148 92.6001 23.568C91.9041 23.976 91.1301 24.18 90.2781 24.18C89.4261 24.18 88.6521 23.976 87.9561 23.568C87.2601 23.148 86.7141 22.572 86.3181 21.84C85.9221 21.108 85.7241 20.292 85.7241 19.392C85.7241 18.492 85.9221 17.676 86.3181 16.944C86.7141 16.212 87.2601 15.636 87.9561 15.216C88.6521 14.796 89.4261 14.586 90.2781 14.586C91.1301 14.586 91.9041 14.796 92.6001 15.216C93.2961 15.636 93.8421 16.212 94.2381 16.944C94.6341 17.676 94.8321 18.492 94.8321 19.392ZM93.7521 19.392C93.7521 18.672 93.6021 18.024 93.3021 17.448C93.0021 16.872 92.5821 16.422 92.0421 16.098C91.5141 15.762 90.9261 15.594 90.2781 15.594C89.6301 15.594 89.0421 15.762 88.5141 16.098C87.9861 16.422 87.5661 16.872 87.2541 17.448C86.9541 18.024 86.8041 18.672 86.8041 19.392C86.8041 20.1 86.9541 20.742 87.2541 21.318C87.5661 21.894 87.9861 22.35 88.5141 22.686C89.0421 23.01 89.6301 23.172 90.2781 23.172C90.9261 23.172 91.5141 23.01 92.0421 22.686C92.5821 22.362 93.0021 21.912 93.3021 21.336C93.6021 20.76 93.7521 20.112 93.7521 19.392ZM101.379 14.586C102.495 14.586 103.311 14.916 103.827 15.576C104.355 16.224 104.619 17.088 104.619 18.168V23.46C104.619 23.616 104.565 23.748 104.457 23.856C104.349 23.952 104.223 24 104.079 24C103.923 24 103.791 23.952 103.683 23.856C103.587 23.748 103.539 23.616 103.539 23.46V18.222C103.539 17.442 103.341 16.812 102.945 16.332C102.561 15.84 101.961 15.594 101.145 15.594C100.629 15.594 100.137 15.714 99.6691 15.954C99.2131 16.194 98.8411 16.518 98.5531 16.926C98.2651 17.322 98.1211 17.754 98.1211 18.222V23.46C98.1211 23.616 98.0671 23.748 97.9591 23.856C97.8631 23.952 97.7371 24 97.5811 24C97.4251 24 97.2931 23.952 97.1851 23.856C97.0891 23.748 97.0411 23.616 97.0411 23.46V15.396C97.0411 15.24 97.0891 15.114 97.1851 15.018C97.2931 14.91 97.4251 14.856 97.5811 14.856C97.7371 14.856 97.8631 14.91 97.9591 15.018C98.0671 15.114 98.1211 15.24 98.1211 15.396V16.386C98.4451 15.87 98.9071 15.444 99.5071 15.108C100.119 14.76 100.743 14.586 101.379 14.586Z" fill="black"/>
<path d="M17.9755 5.08156L20.2799 12.1738C20.4807 12.7918 21.0566 13.2102 21.7064 13.2102H29.1636C29.648 13.2102 29.8494 13.83 29.4575 14.1147L23.4245 18.498C22.8988 18.8799 22.6788 19.557 22.8796 20.175L25.184 27.2672C25.3337 27.7279 24.8065 28.1109 24.4146 27.8262L18.3816 23.443C17.8559 23.0611 17.144 23.0611 16.6183 23.443L10.5853 27.8262C10.1934 28.1109 9.66618 27.7279 9.81585 27.2672L12.1202 20.175C12.3211 19.557 12.1011 18.8799 11.5753 18.498L5.54235 14.1147C5.1505 13.83 5.35188 13.2102 5.83625 13.2102H13.2934C13.9433 13.2102 14.5192 12.7918 14.72 12.1738L17.0244 5.08156C17.1741 4.6209 17.8258 4.6209 17.9755 5.08156Z" stroke="black"/>
<path d="M23.7738 10.466L21.9394 15.4145C21.7135 16.0238 21.9057 16.7093 22.4154 17.1124L26.5548 20.3862C26.9347 20.6866 26.7082 21.2977 26.2242 21.2779L20.9511 21.0625C20.3018 21.036 19.7093 21.4305 19.4834 22.0399L17.649 26.9884C17.4806 27.4425 16.8295 27.4159 16.6987 26.9495L15.2741 21.8679C15.0987 21.2422 14.5403 20.8006 13.891 20.774L8.61788 20.5586C8.13393 20.5388 7.95801 19.9113 8.36116 19.6429L12.7539 16.7177C13.2948 16.3575 13.5422 15.69 13.3668 15.0643L11.9422 9.98261C11.8114 9.51623 12.3539 9.15501 12.7338 9.45547L16.8732 12.7293C17.3829 13.1324 18.0942 13.1614 18.6351 12.8012L23.0278 9.87604C23.431 9.60758 23.9421 10.0118 23.7738 10.466Z" stroke="black"/>
</svg>
