<svg width="86" height="23" viewBox="0 0 86 23" fill="none" xmlns="http://www.w3.org/2000/svg">
<path d="M6.664 1.2C7.544 1.2 8.336 1.408 9.04 1.824C9.744 2.224 10.288 2.792 10.672 3.528C11.072 4.248 11.272 5.064 11.272 5.976C11.272 6.888 11.072 7.72 10.672 8.472C10.288 9.224 9.744 9.816 9.04 10.248C8.336 10.68 7.544 10.896 6.664 10.896H1.696V17.28C1.696 17.488 1.624 17.664 1.48 17.808C1.352 17.936 1.184 18 0.976 18C0.768 18 0.592 17.936 0.448 17.808C0.32 17.664 0.256 17.488 0.256 17.28V1.92C0.256 1.712 0.32 1.544 0.448 1.416C0.592 1.272 0.768 1.2 0.976 1.2H6.664ZM6.664 9.504C7.592 9.504 8.344 9.168 8.92 8.496C9.496 7.824 9.784 6.984 9.784 5.976C9.784 4.984 9.496 4.176 8.92 3.552C8.344 2.928 7.592 2.616 6.664 2.616H1.696V9.504H6.664ZM25.2865 11.856C25.2865 13.056 25.0225 14.144 24.4945 15.12C23.9665 16.096 23.2385 16.864 22.3105 17.424C21.3825 17.968 20.3505 18.24 19.2145 18.24C18.0785 18.24 17.0465 17.968 16.1185 17.424C15.1905 16.864 14.4625 16.096 13.9345 15.12C13.4065 14.144 13.1425 13.056 13.1425 11.856C13.1425 10.656 13.4065 9.568 13.9345 8.592C14.4625 7.616 15.1905 6.848 16.1185 6.288C17.0465 5.728 18.0785 5.448 19.2145 5.448C20.3505 5.448 21.3825 5.728 22.3105 6.288C23.2385 6.848 23.9665 7.616 24.4945 8.592C25.0225 9.568 25.2865 10.656 25.2865 11.856ZM23.8465 11.856C23.8465 10.896 23.6465 10.032 23.2465 9.264C22.8465 8.496 22.2865 7.896 21.5665 7.464C20.8625 7.016 20.0785 6.792 19.2145 6.792C18.3505 6.792 17.5665 7.016 16.8625 7.464C16.1585 7.896 15.5985 8.496 15.1825 9.264C14.7825 10.032 14.5825 10.896 14.5825 11.856C14.5825 12.8 14.7825 13.656 15.1825 14.424C15.5985 15.192 16.1585 15.8 16.8625 16.248C17.5665 16.68 18.3505 16.896 19.2145 16.896C20.0785 16.896 20.8625 16.68 21.5665 16.248C22.2865 15.816 22.8465 15.216 23.2465 14.448C23.6465 13.68 23.8465 12.816 23.8465 11.856ZM29.8159 17.28C29.8159 17.488 29.7439 17.664 29.5999 17.808C29.4719 17.936 29.3039 18 29.0959 18C28.8879 18 28.7119 17.936 28.5679 17.808C28.4399 17.664 28.3759 17.488 28.3759 17.28V0.959999C28.3759 0.751999 28.4399 0.583999 28.5679 0.456C28.7119 0.312 28.8879 0.24 29.0959 0.24C29.3039 0.24 29.4719 0.312 29.5999 0.456C29.7439 0.583999 29.8159 0.751999 29.8159 0.959999V17.28ZM42.5556 5.52C42.7636 5.52 42.9316 5.592 43.0596 5.736C43.2036 5.864 43.2756 6.032 43.2756 6.24V16.824C43.2756 18.088 43.0276 19.168 42.5316 20.064C42.0356 20.96 41.3476 21.64 40.4676 22.104C39.5876 22.568 38.5956 22.8 37.4916 22.8C36.8196 22.8 36.1876 22.728 35.5956 22.584C35.0196 22.44 34.5396 22.248 34.1556 22.008C33.8196 21.8 33.6516 21.568 33.6516 21.312C33.6516 21.28 33.6676 21.2 33.6996 21.072C33.7476 20.912 33.8276 20.792 33.9396 20.712C34.0516 20.632 34.1716 20.592 34.2996 20.592C34.3956 20.592 34.4916 20.616 34.5876 20.664C35.6116 21.224 36.5876 21.504 37.5156 21.504C38.8436 21.504 39.8916 21.088 40.6596 20.256C41.4436 19.424 41.8356 18.288 41.8356 16.848V16.008C41.4356 16.68 40.8596 17.224 40.1076 17.64C39.3556 18.04 38.5396 18.24 37.6596 18.24C36.2676 18.24 35.2116 17.824 34.4916 16.992C33.7716 16.16 33.4116 15.032 33.4116 13.608V6.24C33.4116 6.032 33.4756 5.864 33.6036 5.736C33.7476 5.592 33.9236 5.52 34.1316 5.52C34.3396 5.52 34.5076 5.592 34.6356 5.736C34.7796 5.864 34.8516 6.032 34.8516 6.24V13.392C34.8516 14.544 35.0996 15.416 35.5956 16.008C36.1076 16.6 36.8996 16.896 37.9716 16.896C38.6276 16.896 39.2516 16.736 39.8436 16.416C40.4516 16.08 40.9316 15.648 41.2836 15.12C41.6516 14.576 41.8356 14 41.8356 13.392V6.24C41.8356 6.032 41.8996 5.864 42.0276 5.736C42.1716 5.592 42.3476 5.52 42.5556 5.52ZM57.0687 5.736C57.2767 5.736 57.4447 5.808 57.5727 5.952C57.7167 6.08 57.7887 6.256 57.7887 6.48V16.872C57.7887 18.12 57.5247 19.184 56.9967 20.064C56.4847 20.96 55.7727 21.64 54.8607 22.104C53.9647 22.568 52.9327 22.8 51.7647 22.8C51.2047 22.8 50.6127 22.728 49.9887 22.584C49.3807 22.44 48.8527 22.256 48.4047 22.032C47.9727 21.808 47.7247 21.576 47.6607 21.336C47.5487 21.224 47.4927 21.096 47.4927 20.952C47.4927 20.792 47.5647 20.664 47.7087 20.568C47.7727 20.52 47.8527 20.496 47.9487 20.496C48.0447 20.496 48.2287 20.552 48.5007 20.664L49.0047 20.88C49.9967 21.264 50.9247 21.456 51.7887 21.456C53.2127 21.456 54.3247 21.048 55.1247 20.232C55.9407 19.432 56.3487 18.344 56.3487 16.968V15.48C55.9487 16.344 55.3167 17.024 54.4527 17.52C53.5887 18 52.6847 18.24 51.7407 18.24C50.6367 18.24 49.6367 17.968 48.7407 17.424C47.8607 16.864 47.1647 16.096 46.6527 15.12C46.1407 14.144 45.8847 13.048 45.8847 11.832C45.8847 10.632 46.1407 9.544 46.6527 8.568C47.1647 7.592 47.8607 6.832 48.7407 6.288C49.6367 5.728 50.6287 5.448 51.7167 5.448C52.7247 5.448 53.6447 5.704 54.4767 6.216C55.3247 6.712 55.9487 7.312 56.3487 8.016V6.48C56.3487 6.272 56.4127 6.096 56.5407 5.952C56.6847 5.808 56.8607 5.736 57.0687 5.736ZM51.8607 16.896C52.7407 16.896 53.5247 16.688 54.2127 16.272C54.9167 15.84 55.4607 15.24 55.8447 14.472C56.2447 13.688 56.4447 12.808 56.4447 11.832C56.4447 10.856 56.2447 9.984 55.8447 9.216C55.4607 8.448 54.9167 7.856 54.2127 7.44C53.5247 7.008 52.7407 6.792 51.8607 6.792C50.9967 6.792 50.2127 7.016 49.5087 7.464C48.8207 7.896 48.2767 8.496 47.8767 9.264C47.4927 10.032 47.3007 10.888 47.3007 11.832C47.3007 12.792 47.4927 13.656 47.8767 14.424C48.2767 15.192 48.8207 15.8 49.5087 16.248C50.2127 16.68 50.9967 16.896 51.8607 16.896ZM72.4427 11.856C72.4427 13.056 72.1788 14.144 71.6508 15.12C71.1228 16.096 70.3948 16.864 69.4668 17.424C68.5388 17.968 67.5068 18.24 66.3708 18.24C65.2348 18.24 64.2028 17.968 63.2748 17.424C62.3468 16.864 61.6188 16.096 61.0908 15.12C60.5628 14.144 60.2988 13.056 60.2988 11.856C60.2988 10.656 60.5628 9.568 61.0908 8.592C61.6188 7.616 62.3468 6.848 63.2748 6.288C64.2028 5.728 65.2348 5.448 66.3708 5.448C67.5068 5.448 68.5388 5.728 69.4668 6.288C70.3948 6.848 71.1228 7.616 71.6508 8.592C72.1788 9.568 72.4427 10.656 72.4427 11.856ZM71.0028 11.856C71.0028 10.896 70.8028 10.032 70.4028 9.264C70.0028 8.496 69.4428 7.896 68.7228 7.464C68.0188 7.016 67.2348 6.792 66.3708 6.792C65.5068 6.792 64.7228 7.016 64.0188 7.464C63.3148 7.896 62.7548 8.496 62.3388 9.264C61.9388 10.032 61.7388 10.896 61.7388 11.856C61.7388 12.8 61.9388 13.656 62.3388 14.424C62.7548 15.192 63.3148 15.8 64.0188 16.248C64.7228 16.68 65.5068 16.896 66.3708 16.896C67.2348 16.896 68.0188 16.68 68.7228 16.248C69.4428 15.816 70.0028 15.216 70.4028 14.448C70.8028 13.68 71.0028 12.816 71.0028 11.856ZM81.1722 5.448C82.6602 5.448 83.7482 5.888 84.4362 6.768C85.1402 7.632 85.4922 8.784 85.4922 10.224V17.28C85.4922 17.488 85.4202 17.664 85.2762 17.808C85.1322 17.936 84.9642 18 84.7722 18C84.5642 18 84.3882 17.936 84.2442 17.808C84.1162 17.664 84.0522 17.488 84.0522 17.28V10.296C84.0522 9.256 83.7882 8.416 83.2602 7.776C82.7482 7.12 81.9482 6.792 80.8602 6.792C80.1722 6.792 79.5162 6.952 78.8922 7.272C78.2842 7.592 77.7882 8.024 77.4042 8.568C77.0202 9.096 76.8282 9.672 76.8282 10.296V17.28C76.8282 17.488 76.7562 17.664 76.6122 17.808C76.4842 17.936 76.3162 18 76.1082 18C75.9002 18 75.7242 17.936 75.5802 17.808C75.4522 17.664 75.3882 17.488 75.3882 17.28V6.528C75.3882 6.32 75.4522 6.152 75.5802 6.024C75.7242 5.88 75.9002 5.808 76.1082 5.808C76.3162 5.808 76.4842 5.88 76.6122 6.024C76.7562 6.152 76.8282 6.32 76.8282 6.528V7.848C77.2602 7.16 77.8762 6.592 78.6762 6.144C79.4922 5.68 80.3242 5.448 81.1722 5.448Z" fill="#B736BC"/>
</svg>
