<svg width="36" height="36" viewBox="0 0 36 36" fill="none" xmlns="http://www.w3.org/2000/svg">
<path d="M17.0244 5.08156C17.1741 4.6209 17.8258 4.6209 17.9755 5.08156L20.2799 12.1738C20.4807 12.7918 21.0566 13.2102 21.7064 13.2102H29.1636C29.648 13.2102 29.8494 13.83 29.4575 14.1147L23.4245 18.498C22.8988 18.8799 22.6788 19.557 22.8796 20.175L25.184 27.2672C25.3337 27.7279 24.8065 28.1109 24.4146 27.8262L18.3816 23.443C17.8559 23.0611 17.144 23.0611 16.6183 23.443L10.5853 27.8262C10.1934 28.1109 9.66618 27.7279 9.81585 27.2672L12.1202 20.175C12.3211 19.557 12.1011 18.8799 11.5753 18.498L5.54235 14.1147C5.1505 13.83 5.35188 13.2102 5.83625 13.2102H13.2934C13.9433 13.2102 14.5192 12.7918 14.72 12.1738L17.0244 5.08156Z" stroke="black"/>
<path d="M23.0278 9.87604C23.431 9.60758 23.9421 10.0118 23.7738 10.466L21.9394 15.4145C21.7135 16.0238 21.9057 16.7093 22.4154 17.1124L26.5548 20.3862C26.9347 20.6866 26.7082 21.2977 26.2242 21.2779L20.9511 21.0625C20.3018 21.036 19.7093 21.4305 19.4834 22.0399L17.649 26.9884C17.4806 27.4425 16.8295 27.4159 16.6987 26.9495L15.2741 21.8679C15.0987 21.2422 14.5403 20.8006 13.891 20.774L8.61788 20.5586C8.13393 20.5388 7.95801 19.9113 8.36116 19.6429L12.7539 16.7177C13.2948 16.3575 13.5422 15.69 13.3668 15.0643L11.9422 9.98261C11.8114 9.51623 12.3539 9.15501 12.7338 9.45547L16.8732 12.7293C17.3829 13.1324 18.0942 13.1614 18.6351 12.8012L23.0278 9.87604Z" stroke="black"/>
</svg>
