<svg width="28" height="28" viewBox="0 0 28 28" fill="none" xmlns="http://www.w3.org/2000/svg">
<path d="M19.7738 7.46601L17.9394 12.4145C17.7135 13.0238 17.9057 13.7093 18.4154 14.1124L22.5548 17.3862C22.9347 17.6866 22.7082 18.2977 22.2242 18.2779L16.9511 18.0625C16.3018 18.036 15.7093 18.4305 15.4834 19.0399L13.649 23.9884C13.4806 24.4425 12.8295 24.4159 12.6987 23.9495L11.2741 18.8679C11.0987 18.2422 10.5403 17.8006 9.89104 17.774L4.61788 17.5586C4.13393 17.5388 3.95801 16.9113 4.36116 16.6429L8.75387 13.7177C9.29475 13.3575 9.54219 12.69 9.36678 12.0643L7.94218 6.98261C7.81143 6.51623 8.35387 6.15501 8.73378 6.45547L12.8732 9.72925C13.3829 10.1324 14.0942 10.1614 14.6351 9.80124L19.0278 6.87604C19.431 6.60758 19.9421 7.01184 19.7738 7.46601Z" stroke="white"/>
</svg>
