<svg width="20" height="20" viewBox="0 0 20 20" fill="none" xmlns="http://www.w3.org/2000/svg">
<path d="M11.1814 1.74276C11.4771 1.87874 11.6665 2.17441 11.6665 2.49985V17.4998C11.6665 17.8253 11.4771 18.121 11.1814 18.2569C10.8857 18.3929 10.5379 18.3444 10.2908 18.1326L4.69157 13.3332H2.49984C2.0396 13.3332 1.6665 12.9601 1.6665 12.4998V7.49985C1.6665 7.03961 2.0396 6.66652 2.49984 6.66652H4.69157L10.2908 1.86714C10.5379 1.65534 10.8857 1.60677 11.1814 1.74276ZM9.99984 4.3117L5.54216 8.13256C5.39113 8.26202 5.19876 8.33318 4.99984 8.33318H3.33317V11.6665H4.99984C5.19876 11.6665 5.39113 11.7377 5.54216 11.8671L9.99984 15.688V4.3117ZM14.4106 4.41059C14.736 4.08516 15.2637 4.08516 15.5891 4.41059L15.5897 4.41119L15.5903 4.41182L15.5917 4.41321L15.5949 4.41647L15.6032 4.4249C15.6094 4.43137 15.6172 4.43955 15.6265 4.44943C15.645 4.46919 15.6693 4.49578 15.6986 4.52922C15.7571 4.59607 15.8355 4.69043 15.9269 4.81235C16.1097 5.05607 16.3454 5.41091 16.5785 5.87717C17.0461 6.81241 17.4998 8.18921 17.4998 9.99985C17.4998 11.8105 17.0461 13.1873 16.5785 14.1225C16.3454 14.5888 16.1097 14.9436 15.9269 15.1873C15.8355 15.3093 15.7571 15.4036 15.6986 15.4705C15.6693 15.5039 15.645 15.5305 15.6265 15.5503C15.6172 15.5601 15.6094 15.5683 15.6032 15.5748L15.5949 15.5832L15.5917 15.5865L15.5903 15.5879L15.5897 15.5885L15.5891 15.5891C15.2637 15.9145 14.736 15.9145 14.4106 15.5891C14.0865 15.2651 14.0852 14.7406 14.4064 14.4148L14.4106 14.4104C14.4165 14.4041 14.428 14.3916 14.4443 14.373C14.477 14.3357 14.5288 14.2738 14.5936 14.1873C14.7233 14.0144 14.9043 13.7442 15.0878 13.3772C15.4535 12.6457 15.8332 11.5225 15.8332 9.99985C15.8332 8.47715 15.4535 7.35395 15.0878 6.62253C14.9043 6.25545 14.7233 5.9853 14.5936 5.81235C14.5288 5.72593 14.477 5.66404 14.4443 5.62673C14.428 5.60808 14.4165 5.59561 14.4106 5.58933L14.4064 5.5849C14.0852 5.25914 14.0865 4.73463 14.4106 4.41059ZM12.7439 6.91059C13.0694 6.58516 13.597 6.58516 13.9224 6.91059L13.9236 6.91179L13.9249 6.91306L13.9277 6.91586L13.9341 6.92246L13.9505 6.93966C13.9629 6.95291 13.9783 6.96974 13.9961 6.99016C14.0318 7.03097 14.0777 7.08627 14.13 7.1561C14.2347 7.29565 14.3662 7.49425 14.4952 7.75217C14.7545 8.27074 14.9998 9.02254 14.9998 9.99985C14.9998 10.9772 14.7545 11.729 14.4952 12.2475C14.3662 12.5054 14.2347 12.704 14.13 12.8436C14.0777 12.9134 14.0318 12.9687 13.9961 13.0095C13.9783 13.03 13.9629 13.0468 13.9505 13.06L13.9341 13.0772L13.9277 13.0838L13.9249 13.0866L13.9236 13.0879L13.923 13.0885C13.5976 13.414 13.0694 13.4145 12.7439 13.0891C12.4213 12.7665 12.4185 12.2451 12.7356 11.919C12.7368 11.9178 12.7389 11.9154 12.7418 11.912C12.7517 11.9008 12.771 11.8779 12.7967 11.8436C12.8483 11.7748 12.9251 11.6609 13.0045 11.5022C13.1619 11.1874 13.3332 10.6892 13.3332 9.99985C13.3332 9.31049 13.1619 8.81229 13.0045 8.49753C12.9251 8.33878 12.8483 8.22488 12.7967 8.1561C12.771 8.12177 12.7517 8.09894 12.7418 8.08766C12.7389 8.08427 12.7368 8.08194 12.7356 8.08068C12.4185 7.75462 12.4213 7.23323 12.7439 6.91059Z" fill="white"/>
</svg>
