<svg width="27" height="25" viewBox="0 0 27 25" fill="none" xmlns="http://www.w3.org/2000/svg">
<path d="M13.9755 1.08156L16.2799 8.17376C16.4807 8.7918 17.0567 9.21024 17.7065 9.21024H25.1637C25.6481 9.21024 25.8494 9.83004 25.4576 10.1147L19.4246 14.498C18.8989 14.8799 18.6789 15.557 18.8797 16.175L21.1841 23.2672C21.3338 23.7279 20.8065 24.1109 20.4147 23.8262L14.3817 19.443C13.8559 19.0611 13.1441 19.0611 12.6183 19.443L6.58533 23.8262C6.19348 24.1109 5.66624 23.7279 5.81591 23.2672L8.12031 16.175C8.32112 15.557 8.10113 14.8799 7.5754 14.498L1.54241 10.1147C1.15056 9.83004 1.35194 9.21024 1.83631 9.21024H9.29349C9.94333 9.21024 10.5193 8.7918 10.7201 8.17376L13.0245 1.08156C13.1741 0.620905 13.8259 0.620902 13.9755 1.08156Z" stroke="white"/>
</svg>
