<svg width="75" height="75" viewBox="0 0 75 75" fill="none" xmlns="http://www.w3.org/2000/svg">
<g id="gps_fixed_24px">
<path id="icon/device/gps_fixed_24px" fill-rule="evenodd" clip-rule="evenodd" d="M65.4375 34.375C64 21.3438 53.6562 11 40.625 9.5625V3.125H34.375V9.5625C21.3438 11 11 21.3438 9.5625 34.375H3.125V40.625H9.5625C11 53.6562 21.3438 64 34.375 65.4375V71.875H40.625V65.4375C53.6562 64 64 53.6562 65.4375 40.625H71.875V34.375H65.4375ZM37.5 25C30.5938 25 25 30.5938 25 37.5C25 44.4062 30.5938 50 37.5 50C44.4062 50 50 44.4062 50 37.5C50 30.5938 44.4062 25 37.5 25ZM15.625 37.5C15.625 49.5938 25.4062 59.375 37.5 59.375C49.5938 59.375 59.375 49.5938 59.375 37.5C59.375 25.4062 49.5938 15.625 37.5 15.625C25.4062 15.625 15.625 25.4062 15.625 37.5Z" fill="url(#paint0_linear)"/>
</g>
<defs>
<linearGradient id="paint0_linear" x1="33.1046" y1="-20.6226" x2="-14.7285" y2="11.3026" gradientUnits="userSpaceOnUse">
<stop stop-color="#EE3699"/>
<stop offset="1" stop-color="#8036DF"/>
</linearGradient>
</defs>
</svg>
