<svg width="20" height="20" viewBox="0 0 20 20" fill="none" xmlns="http://www.w3.org/2000/svg">
<path d="M1.6665 5.00016C1.6665 4.07969 2.4127 3.3335 3.33317 3.3335H16.6665C17.587 3.3335 18.3332 4.07969 18.3332 5.00016V14.1668C18.3332 15.0873 17.587 15.8335 16.6665 15.8335H12.845L10.5891 18.0894C10.2637 18.4149 9.73602 18.4149 9.41058 18.0894L7.15466 15.8335H3.33317C2.4127 15.8335 1.6665 15.0873 1.6665 14.1668V5.00016ZM16.6665 5.00016H3.33317V14.1668H7.49984C7.72085 14.1668 7.93281 14.2546 8.08909 14.4109L9.99984 16.3217L11.9106 14.4109C12.0669 14.2546 12.2788 14.1668 12.4998 14.1668H16.6665V5.00016Z" fill="white"/>
<path d="M11.2498 9.5835C11.2498 10.2739 10.6902 10.8335 9.99984 10.8335C9.30948 10.8335 8.74984 10.2739 8.74984 9.5835C8.74984 8.89314 9.30948 8.3335 9.99984 8.3335C10.6902 8.3335 11.2498 8.89314 11.2498 9.5835Z" fill="white"/>
<path d="M14.5832 9.5835C14.5832 10.2739 14.0235 10.8335 13.3332 10.8335C12.6428 10.8335 12.0832 10.2739 12.0832 9.5835C12.0832 8.89314 12.6428 8.3335 13.3332 8.3335C14.0235 8.3335 14.5832 8.89314 14.5832 9.5835Z" fill="white"/>
<path d="M7.9165 9.5835C7.9165 10.2739 7.35686 10.8335 6.6665 10.8335C5.97615 10.8335 5.4165 10.2739 5.4165 9.5835C5.4165 8.89314 5.97615 8.3335 6.6665 8.3335C7.35686 8.3335 7.9165 8.89314 7.9165 9.5835Z" fill="white"/>
</svg>
