<svg width="75" height="75" viewBox="0 0 75 75" fill="none" xmlns="http://www.w3.org/2000/svg">
<g id="speaker_notes_24px">
<path id="icon/action/speaker_notes_24px" fill-rule="evenodd" clip-rule="evenodd" d="M12.5 6.25H62.5C65.9375 6.25 68.75 9.0625 68.75 12.5V50C68.75 53.4375 65.9375 56.25 62.5 56.25H18.75L6.25 68.75L6.28125 12.5C6.28125 9.0625 9.0625 6.25 12.5 6.25ZM16.1562 50H62.5V12.5H12.5V53.6563L14.3125 51.8438L16.1562 50ZM18.75 37.5H25V43.75H18.75V37.5ZM25 28.125H18.75V34.375H25V28.125ZM18.75 18.75H25V25H18.75V18.75ZM46.875 37.5H31.25V43.75H46.875V37.5ZM31.25 28.125H56.25V34.375H31.25V28.125ZM56.25 18.75H31.25V25H56.25V18.75Z" fill="url(#paint0_linear)"/>
</g>
<defs>
<linearGradient id="paint0_linear" x1="33.5042" y1="-15.3387" x2="-9.98047" y2="13.6842" gradientUnits="userSpaceOnUse">
<stop stop-color="#EE3699"/>
<stop offset="1" stop-color="#8036DF"/>
</linearGradient>
</defs>
</svg>
