<svg width="75" height="75" viewBox="0 0 75 75" fill="none" xmlns="http://www.w3.org/2000/svg">
<g id="timeline_24px">
<path id="icon/action/timeline_24px" d="M71.875 25C71.875 28.4375 69.0625 31.25 65.625 31.25C65.0625 31.25 64.5312 31.1875 64.0312 31.0312L52.9062 42.125C53.0625 42.625 53.125 43.1875 53.125 43.75C53.125 47.1875 50.3125 50 46.875 50C43.4375 50 40.625 47.1875 40.625 43.75C40.625 43.1875 40.6875 42.625 40.8438 42.125L32.875 34.1562C32.375 34.3125 31.8125 34.375 31.25 34.375C30.6875 34.375 30.125 34.3125 29.625 34.1562L15.4062 48.4062C15.5625 48.9062 15.625 49.4375 15.625 50C15.625 53.4375 12.8125 56.25 9.375 56.25C5.9375 56.25 3.125 53.4375 3.125 50C3.125 46.5625 5.9375 43.75 9.375 43.75C9.9375 43.75 10.4688 43.8125 10.9688 43.9688L25.2188 29.75C25.0625 29.25 25 28.6875 25 28.125C25 24.6875 27.8125 21.875 31.25 21.875C34.6875 21.875 37.5 24.6875 37.5 28.125C37.5 28.6875 37.4375 29.25 37.2812 29.75L45.25 37.7188C45.75 37.5625 46.3125 37.5 46.875 37.5C47.4375 37.5 48 37.5625 48.5 37.7188L59.5938 26.5938C59.4375 26.0938 59.375 25.5625 59.375 25C59.375 21.5625 62.1875 18.75 65.625 18.75C69.0625 18.75 71.875 21.5625 71.875 25Z" fill="url(#paint0_linear)"/>
</g>
<defs>
<linearGradient id="paint0_linear" x1="33.1046" y1="5.79676" x2="5.41772" y2="39.675" gradientUnits="userSpaceOnUse">
<stop stop-color="#EE3699"/>
<stop offset="1" stop-color="#8036DF"/>
</linearGradient>
</defs>
</svg>
