<svg width="74" height="74" viewBox="0 0 74 74" fill="none" xmlns="http://www.w3.org/2000/svg">
<g id="translate_24px">
<path id="icon/action/translate_24px" fill-rule="evenodd" clip-rule="evenodd" d="M39.6825 46.4659L31.8508 38.7267L31.9433 38.6343C37.3083 32.6526 41.1317 25.7767 43.3825 18.5001H52.4167V12.3334H30.8333V6.16675H24.6667V12.3334H3.08334V18.4692H37.5242C35.4583 24.4201 32.19 30.0626 27.75 34.9959C24.8825 31.8201 22.5083 28.3359 20.6275 24.6667H14.4608C16.7117 29.6926 19.795 34.4409 23.6492 38.7267L7.95501 54.2051L12.3333 58.5834L27.75 43.1667L37.3392 52.7559L39.6825 46.4659ZM57.0417 30.8334H50.875L37 67.8334H43.1667L46.62 58.5834H61.2658L64.75 67.8334H70.9167L57.0417 30.8334ZM53.9584 39.0657L48.9634 52.4166H58.9534L53.9584 39.0657Z" fill="url(#paint0_linear)"/>
</g>
<defs>
<linearGradient id="paint0_linear" x1="32.6632" y1="-15.1341" x2="-11.6634" y2="17.4092" gradientUnits="userSpaceOnUse">
<stop stop-color="#EE3699"/>
<stop offset="1" stop-color="#8036DF"/>
</linearGradient>
</defs>
</svg>
