<svg width="20" height="20" viewBox="0 0 20 20" fill="none" xmlns="http://www.w3.org/2000/svg">
<path d="M11.1814 1.74276C11.4771 1.87874 11.6665 2.17441 11.6665 2.49985V17.4998C11.6665 17.8253 11.4771 18.121 11.1814 18.2569C10.8857 18.3929 10.5379 18.3444 10.2908 18.1326L4.69157 13.3332H2.49984C2.0396 13.3332 1.6665 12.9601 1.6665 12.4998V7.49985C1.6665 7.03961 2.0396 6.66652 2.49984 6.66652H4.69157L10.2908 1.86714C10.5379 1.65534 10.8857 1.60677 11.1814 1.74276ZM9.99984 4.3117L5.54216 8.13256C5.39113 8.26202 5.19876 8.33318 4.99984 8.33318H3.33317V11.6665H4.99984C5.19876 11.6665 5.39113 11.7377 5.54216 11.8671L9.99984 15.688V4.3117ZM13.5772 7.74393C13.9027 7.41849 14.4303 7.41849 14.7558 7.74393L15.8332 8.82134L16.9106 7.74393C17.236 7.41849 17.7637 7.41849 18.0891 7.74393C18.4145 8.06936 18.4145 8.597 18.0891 8.92244L17.0117 9.99985L18.0891 11.0773C18.4145 11.4027 18.4145 11.9303 18.0891 12.2558C17.7637 12.5812 17.236 12.5812 16.9106 12.2558L15.8332 11.1784L14.7558 12.2558C14.4303 12.5812 13.9027 12.5812 13.5772 12.2558C13.2518 11.9303 13.2518 11.4027 13.5772 11.0773L14.6547 9.99985L13.5772 8.92244C13.2518 8.597 13.2518 8.06936 13.5772 7.74393Z" fill="white"/>
</svg>
