<svg width="75" height="75" viewBox="0 0 75 75" fill="none" xmlns="http://www.w3.org/2000/svg">
<g id="whatshot_24px">
<path id="icon/social/whatshot_24px" fill-rule="evenodd" clip-rule="evenodd" d="M42.1875 4.17188C42.1875 4.17188 44.5 12.4531 44.5 19.1719C44.5 25.6094 40.2812 30.8281 33.8438 30.8281C27.375 30.8281 22.5 25.6094 22.5 19.1719L22.5938 18.0469C16.2812 25.5469 12.5 35.2656 12.5 45.8281C12.5 59.6406 23.6875 70.8281 37.5 70.8281C51.3125 70.8281 62.5 59.6406 62.5 45.8281C62.5 28.9844 54.4062 13.9531 42.1875 4.17188ZM36.1563 43.2031C31.9063 44.0781 29.375 46.8281 29.375 50.7344C29.375 54.9219 32.8438 58.2969 37.1563 58.2969C43.5625 58.2969 48.75 53.1094 48.75 46.7031C48.75 43.3594 48.2813 40.0781 47.3125 36.9531C44.8438 40.2969 40.4375 42.3281 36.1563 43.2031ZM18.75 45.8283C18.75 56.1721 27.1562 64.5783 37.5 64.5783C47.8438 64.5783 56.25 56.1721 56.25 45.8283C56.25 37.8283 54.1875 30.1096 50.3438 23.2346C48.6875 31.3596 42.1562 37.0783 33.8438 37.0783C28.9688 37.0783 24.5938 35.1408 21.4375 31.9846C19.6875 36.3283 18.75 41.0471 18.75 45.8283Z" fill="url(#paint0_linear)"/>
</g>
<defs>
<linearGradient id="paint0_linear" x1="34.3033" y1="-18.8525" x2="-5.90318" y2="1.27687" gradientUnits="userSpaceOnUse">
<stop stop-color="#EE3699"/>
<stop offset="1" stop-color="#8036DF"/>
</linearGradient>
</defs>
</svg>
