<svg width="106" height="36" viewBox="0 0 106 36" fill="none" xmlns="http://www.w3.org/2000/svg">
<path d="M44.498 11.4C45.158 11.4 45.752 11.556 46.28 11.868C46.808 12.168 47.216 12.594 47.504 13.146C47.804 13.686 47.954 14.298 47.954 14.982C47.954 15.666 47.804 16.29 47.504 16.854C47.216 17.418 46.808 17.862 46.28 18.186C45.752 18.51 45.158 18.672 44.498 18.672H40.772V23.46C40.772 23.616 40.718 23.748 40.61 23.856C40.514 23.952 40.388 24 40.232 24C40.076 24 39.944 23.952 39.836 23.856C39.74 23.748 39.692 23.616 39.692 23.46V11.94C39.692 11.784 39.74 11.658 39.836 11.562C39.944 11.454 40.076 11.4 40.232 11.4H44.498ZM44.498 17.628C45.194 17.628 45.758 17.376 46.19 16.872C46.622 16.368 46.838 15.738 46.838 14.982C46.838 14.238 46.622 13.632 46.19 13.164C45.758 12.696 45.194 12.462 44.498 12.462H40.772V17.628H44.498ZM58.4649 19.392C58.4649 20.292 58.2669 21.108 57.8709 21.84C57.4749 22.572 56.9289 23.148 56.2329 23.568C55.5369 23.976 54.7629 24.18 53.9109 24.18C53.0589 24.18 52.2849 23.976 51.5889 23.568C50.8929 23.148 50.3469 22.572 49.9509 21.84C49.5549 21.108 49.3569 20.292 49.3569 19.392C49.3569 18.492 49.5549 17.676 49.9509 16.944C50.3469 16.212 50.8929 15.636 51.5889 15.216C52.2849 14.796 53.0589 14.586 53.9109 14.586C54.7629 14.586 55.5369 14.796 56.2329 15.216C56.9289 15.636 57.4749 16.212 57.8709 16.944C58.2669 17.676 58.4649 18.492 58.4649 19.392ZM57.3849 19.392C57.3849 18.672 57.2349 18.024 56.9349 17.448C56.6349 16.872 56.2149 16.422 55.6749 16.098C55.1469 15.762 54.5589 15.594 53.9109 15.594C53.2629 15.594 52.6749 15.762 52.1469 16.098C51.6189 16.422 51.1989 16.872 50.8869 17.448C50.5869 18.024 50.4369 18.672 50.4369 19.392C50.4369 20.1 50.5869 20.742 50.8869 21.318C51.1989 21.894 51.6189 22.35 52.1469 22.686C52.6749 23.01 53.2629 23.172 53.9109 23.172C54.5589 23.172 55.1469 23.01 55.6749 22.686C56.2149 22.362 56.6349 21.912 56.9349 21.336C57.2349 20.76 57.3849 20.112 57.3849 19.392ZM61.862 23.46C61.862 23.616 61.808 23.748 61.7 23.856C61.604 23.952 61.478 24 61.322 24C61.166 24 61.034 23.952 60.926 23.856C60.83 23.748 60.782 23.616 60.782 23.46V11.22C60.782 11.064 60.83 10.938 60.926 10.842C61.034 10.734 61.166 10.68 61.322 10.68C61.478 10.68 61.604 10.734 61.7 10.842C61.808 10.938 61.862 11.064 61.862 11.22V23.46ZM71.4167 14.64C71.5727 14.64 71.6987 14.694 71.7947 14.802C71.9027 14.898 71.9567 15.024 71.9567 15.18V23.118C71.9567 24.066 71.7707 24.876 71.3987 25.548C71.0267 26.22 70.5107 26.73 69.8507 27.078C69.1907 27.426 68.4467 27.6 67.6187 27.6C67.1147 27.6 66.6407 27.546 66.1967 27.438C65.7647 27.33 65.4047 27.186 65.1167 27.006C64.8647 26.85 64.7387 26.676 64.7387 26.484C64.7387 26.46 64.7507 26.4 64.7747 26.304C64.8107 26.184 64.8707 26.094 64.9547 26.034C65.0387 25.974 65.1287 25.944 65.2247 25.944C65.2967 25.944 65.3687 25.962 65.4407 25.998C66.2087 26.418 66.9407 26.628 67.6367 26.628C68.6327 26.628 69.4187 26.316 69.9947 25.692C70.5827 25.068 70.8767 24.216 70.8767 23.136V22.506C70.5767 23.01 70.1447 23.418 69.5807 23.73C69.0167 24.03 68.4047 24.18 67.7447 24.18C66.7007 24.18 65.9087 23.868 65.3687 23.244C64.8287 22.62 64.5587 21.774 64.5587 20.706V15.18C64.5587 15.024 64.6067 14.898 64.7027 14.802C64.8107 14.694 64.9427 14.64 65.0987 14.64C65.2547 14.64 65.3807 14.694 65.4767 14.802C65.5847 14.898 65.6387 15.024 65.6387 15.18V20.544C65.6387 21.408 65.8247 22.062 66.1967 22.506C66.5807 22.95 67.1747 23.172 67.9787 23.172C68.4707 23.172 68.9387 23.052 69.3827 22.812C69.8387 22.56 70.1987 22.236 70.4627 21.84C70.7387 21.432 70.8767 21 70.8767 20.544V15.18C70.8767 15.024 70.9247 14.898 71.0207 14.802C71.1287 14.694 71.2607 14.64 71.4167 14.64ZM82.3015 14.802C82.4575 14.802 82.5835 14.856 82.6795 14.964C82.7875 15.06 82.8415 15.192 82.8415 15.36V23.154C82.8415 24.09 82.6435 24.888 82.2475 25.548C81.8635 26.22 81.3295 26.73 80.6455 27.078C79.9735 27.426 79.1995 27.6 78.3235 27.6C77.9035 27.6 77.4595 27.546 76.9915 27.438C76.5355 27.33 76.1395 27.192 75.8035 27.024C75.4795 26.856 75.2935 26.682 75.2455 26.502C75.1615 26.418 75.1195 26.322 75.1195 26.214C75.1195 26.094 75.1735 25.998 75.2815 25.926C75.3295 25.89 75.3895 25.872 75.4615 25.872C75.5335 25.872 75.6715 25.914 75.8755 25.998L76.2535 26.16C76.9975 26.448 77.6935 26.592 78.3415 26.592C79.4095 26.592 80.2435 26.286 80.8435 25.674C81.4555 25.074 81.7615 24.258 81.7615 23.226V22.11C81.4615 22.758 80.9875 23.268 80.3395 23.64C79.6915 24 79.0135 24.18 78.3055 24.18C77.4775 24.18 76.7275 23.976 76.0555 23.568C75.3955 23.148 74.8735 22.572 74.4895 21.84C74.1055 21.108 73.9135 20.286 73.9135 19.374C73.9135 18.474 74.1055 17.658 74.4895 16.926C74.8735 16.194 75.3955 15.624 76.0555 15.216C76.7275 14.796 77.4715 14.586 78.2875 14.586C79.0435 14.586 79.7335 14.778 80.3575 15.162C80.9935 15.534 81.4615 15.984 81.7615 16.512V15.36C81.7615 15.204 81.8095 15.072 81.9055 14.964C82.0135 14.856 82.1455 14.802 82.3015 14.802ZM78.3955 23.172C79.0555 23.172 79.6435 23.016 80.1595 22.704C80.6875 22.38 81.0955 21.93 81.3835 21.354C81.6835 20.766 81.8335 20.106 81.8335 19.374C81.8335 18.642 81.6835 17.988 81.3835 17.412C81.0955 16.836 80.6875 16.392 80.1595 16.08C79.6435 15.756 79.0555 15.594 78.3955 15.594C77.7475 15.594 77.1595 15.762 76.6315 16.098C76.1155 16.422 75.7075 16.872 75.4075 17.448C75.1195 18.024 74.9755 18.666 74.9755 19.374C74.9755 20.094 75.1195 20.742 75.4075 21.318C75.7075 21.894 76.1155 22.35 76.6315 22.686C77.1595 23.01 77.7475 23.172 78.3955 23.172ZM93.8321 19.392C93.8321 20.292 93.6341 21.108 93.2381 21.84C92.8421 22.572 92.2961 23.148 91.6001 23.568C90.9041 23.976 90.1301 24.18 89.2781 24.18C88.4261 24.18 87.6521 23.976 86.9561 23.568C86.2601 23.148 85.7141 22.572 85.3181 21.84C84.9221 21.108 84.7241 20.292 84.7241 19.392C84.7241 18.492 84.9221 17.676 85.3181 16.944C85.7141 16.212 86.2601 15.636 86.9561 15.216C87.6521 14.796 88.4261 14.586 89.2781 14.586C90.1301 14.586 90.9041 14.796 91.6001 15.216C92.2961 15.636 92.8421 16.212 93.2381 16.944C93.6341 17.676 93.8321 18.492 93.8321 19.392ZM92.7521 19.392C92.7521 18.672 92.6021 18.024 92.3021 17.448C92.0021 16.872 91.5821 16.422 91.0421 16.098C90.5141 15.762 89.9261 15.594 89.2781 15.594C88.6301 15.594 88.0421 15.762 87.5141 16.098C86.9861 16.422 86.5661 16.872 86.2541 17.448C85.9541 18.024 85.8041 18.672 85.8041 19.392C85.8041 20.1 85.9541 20.742 86.2541 21.318C86.5661 21.894 86.9861 22.35 87.5141 22.686C88.0421 23.01 88.6301 23.172 89.2781 23.172C89.9261 23.172 90.5141 23.01 91.0421 22.686C91.5821 22.362 92.0021 21.912 92.3021 21.336C92.6021 20.76 92.7521 20.112 92.7521 19.392ZM100.379 14.586C101.495 14.586 102.311 14.916 102.827 15.576C103.355 16.224 103.619 17.088 103.619 18.168V23.46C103.619 23.616 103.565 23.748 103.457 23.856C103.349 23.952 103.223 24 103.079 24C102.923 24 102.791 23.952 102.683 23.856C102.587 23.748 102.539 23.616 102.539 23.46V18.222C102.539 17.442 102.341 16.812 101.945 16.332C101.561 15.84 100.961 15.594 100.145 15.594C99.6291 15.594 99.1371 15.714 98.6691 15.954C98.2131 16.194 97.8411 16.518 97.5531 16.926C97.2651 17.322 97.1211 17.754 97.1211 18.222V23.46C97.1211 23.616 97.0671 23.748 96.9591 23.856C96.8631 23.952 96.7371 24 96.5811 24C96.4251 24 96.2931 23.952 96.1851 23.856C96.0891 23.748 96.0411 23.616 96.0411 23.46V15.396C96.0411 15.24 96.0891 15.114 96.1851 15.018C96.2931 14.91 96.4251 14.856 96.5811 14.856C96.7371 14.856 96.8631 14.91 96.9591 15.018C97.0671 15.114 97.1211 15.24 97.1211 15.396V16.386C97.4451 15.87 97.9071 15.444 98.5071 15.108C99.1191 14.76 99.7431 14.586 100.379 14.586Z" fill="white"/>
<path d="M17.4999 3.61804L20.5044 12.8647L20.6166 13.2102H20.9799H30.7025L22.8368 18.925L22.5429 19.1385L22.6551 19.484L25.6596 28.7307L17.7938 23.016L17.4999 22.8024L17.206 23.016L9.34032 28.7307L12.3448 19.484L12.457 19.1385L12.1631 18.925L4.29741 13.2102H14.02H14.3832L14.4955 12.8647L17.4999 3.61804Z" stroke="#EE3699"/>
<path d="M24.3086 9.02311L21.6868 16.0957L21.5606 16.4364L21.8455 16.6617L27.7618 21.3408L20.2252 21.0328L19.8622 21.018L19.7359 21.3586L17.1141 28.4313L15.078 21.1683L14.9799 20.8185L14.617 20.8037L7.08033 20.4958L13.3586 16.315L13.661 16.1136L13.5629 15.7638L11.5268 8.5009L17.4431 13.1799L17.728 13.4053L18.0304 13.2039L24.3086 9.02311Z" stroke="#EE3699"/>
</svg>
