<svg width="91" height="64" viewBox="0 0 91 64" fill="none" xmlns="http://www.w3.org/2000/svg">
<path d="M79.0911 25.3861C79.9391 23.9011 80.3331 22.2131 80.1351 20.5141C79.7251 16.9891 79.8991 17.6791 77.5101 15.9231C70.4621 11.3981 67.1961 -3.01792 53.7261 0.805077C46.9911 2.71708 61.5681 6.96508 65.6281 12.8841C59.3941 10.4531 53.247 7.10808 46.669 6.52408C45.078 6.35908 43.4981 6.43308 41.9411 6.85908C40.8031 7.17108 39.678 7.67008 38.569 8.40208C38.16 8.67208 38.2031 9.77008 38.6231 10.0221C39.7631 10.7061 44.062 11.3571 45.391 11.7721C50.817 13.3411 56.2211 14.7711 60.4531 18.8601C54.9631 18.3451 51.933 15.0591 40.723 18.8701C30.056 22.4971 28.0591 27.7211 22.7941 32.0291C22.6591 32.2581 20.3791 33.7411 20.3791 33.7411C20.3791 33.7411 18.7831 33.3991 16.8981 33.5231C14.2581 33.6961 11.7441 36.1271 13.1951 38.7591C13.6201 39.5301 14.6261 40.4191 15.0561 41.2221C12.3711 43.0121 8.65605 45.4751 7.96805 46.1291C5.78405 47.6271 3.62005 49.1471 1.53805 50.7501C0.135051 51.8291 0.743051 54.5681 2.58305 54.2171C4.08305 54.4701 5.73705 53.4801 7.11605 52.8711C9.11405 51.9881 11.0641 51.0131 12.9861 49.9871C13.3781 49.7781 13.7651 49.5591 14.1551 49.3461C13.3081 50.4371 12.1371 51.6301 10.5511 52.9511C9.37705 53.8251 8.21905 54.7391 7.20405 55.7021C5.02005 57.2001 2.85605 58.7201 0.774051 60.3231C-0.627949 61.4031 -0.020949 64.1421 1.81905 63.7901C3.31905 64.0431 4.97405 63.0531 6.35205 62.4441C8.35005 61.5611 10.2991 60.5871 12.2221 59.5601C14.1441 58.5341 16.0401 57.4561 17.9341 56.3731C19.9201 55.6271 21.7591 54.6591 23.4921 53.5351C25.2251 52.4111 26.8541 51.1311 28.4191 49.7621C34.6691 44.4221 36.5641 42.3891 44.0951 38.7811C45.6011 38.0591 56.4751 33.5681 58.0681 33.1101C61.9491 30.9311 84.7181 42.2141 86.8911 38.7251C89.3741 35.9891 74.2551 32.2971 66.8951 29.8701C70.5581 30.8581 73.8611 30.1171 76.2591 28.4501C82.3501 30.4441 88.7411 32.6421 89.7691 30.9931C91.2931 29.3121 85.0681 27.2101 79.0911 25.3861ZM63.255 28.3541C63.763 28.6441 64.2671 28.8921 64.7671 29.1141C64.0611 28.8331 63.529 28.5771 63.255 28.3541ZM68.4641 21.3861C67.4511 21.3861 66.6301 20.5651 66.6301 19.5521C66.6301 18.5391 67.4511 17.7181 68.4641 17.7181C69.4771 17.7181 69.8861 18.4681 69.8861 19.4811C69.8861 20.4941 69.4771 21.3861 68.4641 21.3861Z" fill="black"/>
</svg>
