<svg width="48" height="28" viewBox="0 0 48 28" fill="none" xmlns="http://www.w3.org/2000/svg">
<path d="M13.6041 12.0518L10.2761 17.8234C15.2176 18.798 20.0233 18.7617 25.154 17.6L21.9485 12.0518H13.6041Z" fill="black"/>
<path d="M21.9485 9.87003L25.7708 3.25285C20.9366 0.1165 14.6519 -0.16243 9.47827 2.72393L13.6041 9.87002H21.9485V9.87003Z" fill="black"/>
<path d="M27.3767 17.0263C29.4063 16.4427 31.0313 15.8313 32.9184 14.9903C32.5315 10.9903 30.7518 7.38074 27.5466 4.60986L23.8767 10.9609L27.3767 17.0263Z" fill="black"/>
<path d="M8.02351 17.3045L11.6886 10.9609L7.63921 3.94629C3.93398 6.74639 1.87435 10.6388 1.45654 14.9928C3.91457 16.0891 5.74318 16.7141 8.02351 17.3045Z" fill="black"/>
<path d="M47.1489 4.90038C45.6908 3.62899 43.2094 2.80148 41.451 3.9074L40.8968 4.3166C40.8968 4.3166 40.8957 4.3166 40.8957 4.31767C40.7865 4.41375 41.1932 4.10197 33.7801 9.57141C34.3796 10.996 34.8001 12.485 35.0132 14.0306C36.328 13.5949 37.0335 15.445 35.8313 16.0284C35.4449 16.1722 27.4427 20.7061 17.1866 20.7061C5.47952 20.7061 0.999759 15.7861 0.0993886 18.0024C-0.187171 18.7065 0.147329 19.7878 1.08478 20.215C1.87469 20.5741 2.6654 20.9024 3.45691 21.2101C3.45744 21.2104 3.45824 21.2105 3.45877 21.2108C13.0139 24.9262 22.6659 24.8928 32.2349 21.1257C32.7107 20.6945 32.4464 21.2429 36.1541 19.3819C36.181 19.3685 36.21 19.3703 36.2372 19.3593C39.1587 17.6878 40.5133 15.5543 40.2704 13.9852C39.9818 12.1266 41.9481 11.0205 43.8519 10.7424C44.9523 10.5816 46.0996 9.87528 47.2619 8.64274C47.7647 8.1101 48.0321 7.38889 47.9969 6.66663C47.9628 5.97633 47.6624 5.34887 47.1489 4.90038ZM44.1906 7.68186H43.5547C42.9517 7.68186 42.4638 7.19396 42.4638 6.591C42.4638 5.24413 44.0813 5.53103 44.1906 5.50014C44.7936 5.50014 45.2815 5.98804 45.2815 6.591C45.2815 7.19395 44.7936 7.68186 44.1906 7.68186Z" fill="black"/>
<path d="M4.12402 25.7683C4.12402 26.6014 4.80261 27.2799 5.63567 27.2799H9.04566C9.87872 27.2799 10.5562 26.6014 10.5562 25.7683V25.5004C8.40942 25.1038 6.26472 24.5318 4.12402 23.7795V25.7683Z" fill="black"/>
<path d="M26.5708 25.7684C26.5708 26.6014 27.2494 27.28 28.0824 27.28H31.4914C32.3244 27.28 33.003 26.6014 33.003 25.7684V23.1646C30.8623 24.0072 28.7179 24.6701 26.5708 25.1572V25.7684Z" fill="black"/>
</svg>
